<?xml version="1.0" standalone="no"?>
<!DOCTYPE svg PUBLIC "-//W3C//DTD SVG 1.1//EN" "http://www.w3.org/Graphics/SVG/1.1/DTD/svg11.dtd">
<svg t="1734706815678" class="icon" viewBox="0 0 1024 1024" version="1.1" xmlns="http://www.w3.org/2000/svg" p-id="8653" xmlns:xlink="http://www.w3.org/1999/xlink" width="200" height="200">
	<path d="M1019.264 652.992l-0.64-2.048a323.776 323.776 0 0 0-147.136-182.336 325.824 325.824 0 0 0-162.496-43.648A328.256 328.256 0 0 0 475.52 523.328a172.032 172.032 0 0 1-44.8-116.224 172.736 172.736 0 0 1 86.464-150.016 173.12 173.12 0 0 1 116.928-20.8l66.24 11.84-30.592-59.968A312.32 312.32 0 0 0 390.592 17.216h-1.344c-2.432 0-4.736 0.064-7.04 0.192h-2.624a157.248 157.248 0 0 0-100.928 44.16l-1.408 1.536a323.52 323.52 0 0 0-84.352 218.624 327.104 327.104 0 0 0 245.248 315.584 172.16 172.16 0 0 1-78.464 97.152 173.056 173.056 0 0 1-173.248 0.128 172.352 172.352 0 0 1-76.288-90.816l-22.912-63.296-36.544 56.448a312.256 312.256 0 0 0-8.512 327.232l0.704 1.216 3.712 6.08 1.344 2.112c20.736 31.808 52.224 54.976 88.704 65.344l2.048 0.576a338.816 338.816 0 0 0 68.864 7.36c56.96 0 113.152-15.104 162.688-43.712a327.104 327.104 0 0 0 155.328-351.616 180.416 180.416 0 0 0-6.016-17.088c6.976-9.088 38.208-5.696 38.208-5.696a172.864 172.864 0 0 1 155.904 97.92 173.76 173.76 0 0 1-5.952 162.112 172.8 172.8 0 0 1-17.28 24.704l-43.328 51.456 67.136 3.392a314.624 314.624 0 0 0 287.68-156.224l0.64-1.152c1.152-1.984 2.176-3.968 3.392-6.272l1.28-2.176c16.96-33.92 21.248-72.768 12.032-109.504zM383.552 502.464a260.032 260.032 0 0 1-123.84-220.736A257.024 257.024 0 0 1 325.952 108.8a90.24 90.24 0 0 1 56.384-24.64h1.792l5.12-0.064h1.344c72.512 0 139.648 31.296 185.792 84.352a236.864 236.864 0 0 0-92.672 30.72A239.36 239.36 0 0 0 363.968 407.04c0 33.408 6.72 65.792 19.584 95.424z m-46.848 402.816a258.816 258.816 0 0 1-182.848 29.056 90.24 90.24 0 0 1-49.472-36.544l-0.896-1.472a71.68 71.68 0 0 1-2.688-4.352l-0.704-1.152a245.696 245.696 0 0 1-19.84-203.072c19.648 26.432 44.48 48.576 72.96 64.896a242.176 242.176 0 0 0 102.144 31.36 240.704 240.704 0 0 0 210.56-96.32 259.84 259.84 0 0 1-129.216 217.6z m611.072-173.76l-1.024 1.792c-0.768 1.408-1.408 2.752-2.24 4.16l-0.64 1.216a248 248 0 0 1-165.952 118.592 240.704 240.704 0 0 0-100.416-303.168 240.64 240.64 0 0 0-92.608-30.656 260.736 260.736 0 0 1 124.096-31.744 259.328 259.328 0 0 1 237.056 155.648c3.136 7.04 6.016 14.592 8.704 22.848 4.864 20.672 2.432 42.304-6.976 61.312z" fill="#1296db" p-id="8654"></path>
</svg>